<svg xmlns="http://www.w3.org/2000/svg" viewBox="0 0 64 64">
  <path d="M9 12 C8 8.5, 10 6.5, 13.5 6.8 L50 5.5 C54.5 5.3, 57.5 7.5, 57.2 12 L58.5 50 C58.8 55, 56 58.2, 51 58 L14 58.8 C9.5 59, 6.8 56, 7.2 51.5 Z"
        fill="none" stroke="#E97A80" stroke-width="4.5" stroke-linejoin="round"/>
  <path d="M18 36 C18 27 24 22 32 22 C40 22 46 28 46 35 C46 41 42 44 37 44 C33 44 31 41 31 38 C31 35 33 33 36 33" fill="none" stroke="#E97A80" stroke-width="3.2" stroke-linecap="round"/>
          <path d="M22 26 L20 21 L25 23.5" fill="none" stroke="#E97A80" stroke-width="2.8" stroke-linecap="round" stroke-linejoin="round"/>
          <circle cx="26" cy="29" r="1.5" fill="#E97A80"/>
          <path d="M18 36 C16 38 16 41 18 43" fill="none" stroke="#E97A80" stroke-width="2.8" stroke-linecap="round"/>
</svg>
